<?xml version="1.0" encoding="UTF-8"?>
<svg version="1.1" xmlns="http://www.w3.org/2000/svg" width="202" height="158">
<path d="M0 0 C66.66 0 133.32 0 202 0 C202 52.14 202 104.28 202 158 C135.34 158 68.68 158 0 158 C0 105.86 0 53.72 0 0 Z " fill="#D7D8E9" transform="translate(0,0)"/>
<path d="M0 0 C1.65 0 3.3 0 5 0 C5 3.96 5 7.92 5 12 C4.01 12.495 4.01 12.495 3 13 C4.91466367 12.87822312 4.91466367 12.87822312 7 12 C9.52453645 8.60158555 10.78172689 5.02967261 12 1 C12.66 1.33 13.32 1.66 14 2 C12.48059017 6.76542174 10.85112784 11.43969118 8.9375 16.0625 C7.65500742 19.18827089 6.63117726 22.20735416 5.875 25.5 C5 29 5 29 3 31 C1.68252676 31.69748583 0.35085807 32.36959957 -1 33 C2.13349732 34.04449911 2.98968256 33.93423645 6 33 C6 33.66 6 34.32 6 35 C5.34 35 4.68 35 4 35 C3.773125 35.7425 3.54625 36.485 3.3125 37.25 C2 40 2 40 -0.625 41.9375 C-3.27019572 43.82532917 -3.27019572 43.82532917 -3.6875 47 C-3.25973424 50.30320756 -3.25973424 50.30320756 0 52.375 C0.99 52.91125 1.98 53.4475 3 54 C1.68 55.32 0.36 56.64 -1 58 C4.05451458 55.66714712 8.61305206 53.55646554 10.875 48.25 C11.24625 47.1775 11.6175 46.105 12 45 C12.66 45 13.32 45 14 45 C14 48.63457481 13.96329332 50.92484036 11.48632812 53.68945312 C6.39057861 58.00124118 1.09731113 61.80471745 -4.5 65.4375 C-5.32242188 65.97826172 -6.14484375 66.51902344 -6.9921875 67.07617188 C-8.99132032 68.38955564 -10.99385908 69.69735696 -13 71 C-12.67 71 -12.34 71 -12 71 C-11.01 71 -10.02 71 -9 71 C-9 70.34 -9 69.68 -9 69 C-6.6640625 67.30859375 -6.6640625 67.30859375 -3.625 65.4375 C-2.12839844 64.50744141 -2.12839844 64.50744141 -0.6015625 63.55859375 C0.90395068 62.65664216 2.43026458 61.78486771 4 61 C4 61.66 4 62.32 4 63 C4.99 63 5.98 63 7 63 C7 62.34 7 61.68 7 61 C9.97 61.495 9.97 61.495 13 62 C13 62.66 13 63.32 13 64 C13.99 64.495 13.99 64.495 15 65 C13.205625 65.5878125 13.205625 65.5878125 11.375 66.1875 C5.85700231 68.01803193 0.40092595 70.01519537 -5.05859375 72.01171875 C-8 73 -8 73 -10 73 C-10 73.66 -10 74.32 -10 75 C-8.20793453 74.85915204 -6.41635083 74.71216299 -4.625 74.5625 C-3.62726563 74.48128906 -2.62953125 74.40007812 -1.6015625 74.31640625 C0.97927613 74.15034374 0.97927613 74.15034374 3 73 C4.99960012 72.960008 7.00047242 72.95653201 9 73 C4.15009893 76.23326738 -1.46921261 77.1957574 -7.0625 78.6875 C-8.27228516 79.02072266 -9.48207031 79.35394531 -10.72851562 79.69726562 C-11.88158203 80.00728516 -13.03464844 80.31730469 -14.22265625 80.63671875 C-15.28234619 80.92248779 -16.34203613 81.20825684 -17.43383789 81.50268555 C-20 82 -20 82 -22 81 C-21.01 80.01 -20.02 79.02 -19 78 C-19.61875 77.608125 -20.2375 77.21625 -20.875 76.8125 C-23.37104377 74.68352149 -23.95126427 73.07129751 -25 70 C-25.4125 69.319375 -25.825 68.63875 -26.25 67.9375 C-26.62125 66.9784375 -26.62125 66.9784375 -27 66 C-26.125 64.0625 -26.125 64.0625 -25 62 C-25.020625 61.175 -25.04125 60.35 -25.0625 59.5 C-24.98471553 56.38862119 -24.13103449 55.21299735 -22 53 C-21.34 53 -20.68 53 -20 53 C-20 52.01 -20 51.02 -20 50 C-18.824375 49.8453125 -18.824375 49.8453125 -17.625 49.6875 C-14.66954819 49.22404978 -14.66954819 49.22404978 -13 46 C-13 47.32 -13 48.64 -13 50 C-12.01 50 -11.02 50 -10 50 C-10.33 50.99 -10.66 51.98 -11 53 C-8.97034802 52.5748108 -8.97034802 52.5748108 -7 51 C-6.29490764 48.9707098 -5.8728769 46.98821463 -5.4921875 44.875 C-5 43 -5 43 -3 41 C-2.3574765 38.93125966 -2.3574765 38.93125966 -2 37 C-4.99332739 37.9977758 -5.94766315 38.7522025 -8 41 C-8.33 40.34 -8.66 39.68 -9 39 C-11.97 39 -14.94 39 -18 39 C-15.66666667 36.66666667 -13.33333333 34.33333333 -11 32 C-11.40929986 29.94603274 -11.40929986 29.94603274 -12 28 C-11.67 27.67 -11.34 27.34 -11 27 C-12.32 26.34 -13.64 25.68 -15 25 C-17.64 27.64 -20.28 30.28 -23 33 C-23 28.83322063 -21.00797457 27.60688527 -18.21484375 24.71875 C-17.61349609 23.86796875 -17.61349609 23.86796875 -17 23 C-17.33 22.01 -17.66 21.02 -18 20 C-17.67 19.01 -17.34 18.02 -17 17 C-16.34 17 -15.68 17 -15 17 C-14.67 16.01 -14.34 15.02 -14 14 C-13.05125 13.896875 -12.1025 13.79375 -11.125 13.6875 C-7.70892499 13.31460705 -7.70892499 13.31460705 -6 10 C-5.01 9.67 -4.02 9.34 -3 9 C-5.70879335 7.64560332 -8.00933268 7.93498549 -11 8 C-11 8.66 -11 9.32 -11 10 C-14 12 -14 12 -17 12 C-17 12.66 -17 13.32 -17 14 C-17.99 14 -18.98 14 -20 14 C-19.34 12.68 -18.68 11.36 -18 10 C-16.68 10 -15.36 10 -14 10 C-13.67 8.35 -13.34 6.7 -13 5 C-12.14535156 4.72285156 -11.29070312 4.44570313 -10.41015625 4.16015625 C-9.30542969 3.79792969 -8.20070313 3.43570312 -7.0625 3.0625 C-5.96035156 2.70285156 -4.85820312 2.34320312 -3.72265625 1.97265625 C-1.11876525 1.26143332 -1.11876525 1.26143332 0 0 Z " fill="#D3D4E5" transform="translate(134,14)"/>
<path d="M0 0 C-0.1875 2.875 -0.1875 2.875 -1 6 C-3.5 7.25 -3.5 7.25 -6 8 C-6.33 8.66 -6.66 9.32 -7 10 C-6.01 10 -5.02 10 -4 10 C-4 9.34 -4 8.68 -4 8 C-2.02 7.34 -0.04 6.68 2 6 C1.505 4.515 1.505 4.515 1 3 C7.625 2.75 7.625 2.75 11 5 C10.67 5.66 10.34 6.32 10 7 C9.01 7 8.02 7 7 7 C6.34 7.99 5.68 8.98 5 10 C3.00577205 10.36628677 1.00546689 10.70131344 -1 11 C-1.33 11.66 -1.66 12.32 -2 13 C-2.66 13 -3.32 13 -4 13 C-4 13.99 -4 14.98 -4 16 C-4.66 16 -5.32 16 -6 16 C-6 16.66 -6 17.32 -6 18 C-7.65 18.33 -9.3 18.66 -11 19 C-11 18.01 -11 17.02 -11 16 C-13.475 15.505 -13.475 15.505 -16 15 C-14.68 15.99 -13.36 16.98 -12 18 C-12.33 19.32 -12.66 20.64 -13 22 C-15.1484375 20.046875 -15.1484375 20.046875 -17.296875 18.09375 C-19.22360515 16.63975508 -19.22360515 16.63975508 -23 17 C-21.68 17.66 -20.36 18.32 -19 19 C-23.75 21.875 -23.75 21.875 -26 23 C-26 24.32 -26 25.64 -26 27 C-26.66 27 -27.32 27 -28 27 C-28 27.66 -28 28.32 -28 29 C-28.66 29 -29.32 29 -30 29 C-30 29.66 -30 30.32 -30 31 C-29.34 31 -28.68 31 -28 31 C-27.67 31.99 -27.34 32.98 -27 34 C-31.07369424 36.03684712 -33.58937864 36.0257259 -38 35 C-38 35.99 -38 36.98 -38 38 C-39.98 38 -41.96 38 -44 38 C-44.33 38.66 -44.66 39.32 -45 40 C-45.5775 39.505 -46.155 39.01 -46.75 38.5 C-49.10400629 36.63019987 -49.10400629 36.63019987 -53 37 C-52.09988254 30.69917777 -49.01609459 26.71602795 -44.625 22.25 C-43.87476562 21.47140625 -43.12453125 20.6928125 -42.3515625 19.890625 C-39.79181155 17.83261925 -38.18137747 17.50289816 -35 17 C-34.67 16.34 -34.34 15.68 -34 15 C-31.92578125 14.0703125 -31.92578125 14.0703125 -29.3125 13.125 C-25.07134687 11.50642506 -21.64530234 9.68601225 -18 7 C-17.34 7.33 -16.68 7.66 -16 8 C-17.32 8.99 -18.64 9.98 -20 11 C-19.44570312 10.6390625 -18.89140625 10.278125 -18.3203125 9.90625 C-17.59585938 9.4421875 -16.87140625 8.978125 -16.125 8.5 C-15.40570313 8.0359375 -14.68640625 7.571875 -13.9453125 7.09375 C-12 6 -12 6 -10 6 C-10 5.34 -10 4.68 -10 4 C-10.66 3.67 -11.32 3.34 -12 3 C-4.71428571 -0.42857143 -4.71428571 -0.42857143 0 0 Z " fill="#F3F5FA" transform="translate(121,18)"/>
<path d="M0 0 C1.65 0 3.3 0 5 0 C5 3.96 5 7.92 5 12 C4.01 12.495 4.01 12.495 3 13 C4.91466367 12.87822312 4.91466367 12.87822312 7 12 C9.52453645 8.60158555 10.78172689 5.02967261 12 1 C12.66 1.33 13.32 1.66 14 2 C12.48059017 6.76542174 10.85112784 11.43969118 8.9375 16.0625 C7.65500742 19.18827089 6.63117726 22.20735416 5.875 25.5 C5 29 5 29 3 31 C1.68252676 31.69748583 0.35085807 32.36959957 -1 33 C2.13349732 34.04449911 2.98968256 33.93423645 6 33 C6 33.66 6 34.32 6 35 C5.34 35 4.68 35 4 35 C3.34 36.32 2.68 37.64 2 39 C0.906875 38.773125 -0.18625 38.54625 -1.3125 38.3125 C-4.90531273 37.59853617 -4.90531273 37.59853617 -6.9375 39.4375 C-7.4634375 40.2109375 -7.4634375 40.2109375 -8 41 C-8.33 40.34 -8.66 39.68 -9 39 C-11.97 39 -14.94 39 -18 39 C-15.66666667 36.66666667 -13.33333333 34.33333333 -11 32 C-11.40929986 29.94603274 -11.40929986 29.94603274 -12 28 C-11.67 27.67 -11.34 27.34 -11 27 C-12.32 26.34 -13.64 25.68 -15 25 C-17.64 27.64 -20.28 30.28 -23 33 C-23 28.83322063 -21.00797457 27.60688527 -18.21484375 24.71875 C-17.81394531 24.1515625 -17.41304688 23.584375 -17 23 C-17.33 22.01 -17.66 21.02 -18 20 C-17.67 19.01 -17.34 18.02 -17 17 C-16.34 17 -15.68 17 -15 17 C-14.67 16.01 -14.34 15.02 -14 14 C-13.05125 13.896875 -12.1025 13.79375 -11.125 13.6875 C-7.70892499 13.31460705 -7.70892499 13.31460705 -6 10 C-5.01 9.67 -4.02 9.34 -3 9 C-5.70879335 7.64560332 -8.00933268 7.93498549 -11 8 C-11 8.66 -11 9.32 -11 10 C-14 12 -14 12 -17 12 C-17 12.66 -17 13.32 -17 14 C-17.99 14 -18.98 14 -20 14 C-19.34 12.68 -18.68 11.36 -18 10 C-16.68 10 -15.36 10 -14 10 C-13.67 8.35 -13.34 6.7 -13 5 C-12.14535156 4.72285156 -11.29070312 4.44570313 -10.41015625 4.16015625 C-9.30542969 3.79792969 -8.20070313 3.43570312 -7.0625 3.0625 C-5.96035156 2.70285156 -4.85820312 2.34320312 -3.72265625 1.97265625 C-1.11876525 1.26143332 -1.11876525 1.26143332 0 0 Z " fill="#9E9EB5" transform="translate(134,14)"/>
<path d="M0 0 C4.75 0.875 4.75 0.875 7 2 C7 2.99 7 3.98 7 5 C9.47266765 4.65555119 9.47266765 4.65555119 12 4 C12.33 3.34 12.66 2.68 13 2 C13.66 3.32 14.32 4.64 15 6 C12.69 8.31 10.38 10.62 8 13 C8.7425 12.401875 9.485 11.80375 10.25 11.1875 C12.47417764 9.41826778 14.71662235 7.69139085 17 6 C18.32 6.99 19.64 7.98 21 9 C20.34 10.32 19.68 11.64 19 13 C19.66 13.33 20.32 13.66 21 14 C20.4946875 14.40992188 19.989375 14.81984375 19.46875 15.2421875 C18.8190625 15.78101563 18.169375 16.31984375 17.5 16.875 C16.8503125 17.40867187 16.200625 17.94234375 15.53125 18.4921875 C15.0259375 18.98976563 14.520625 19.48734375 14 20 C14 20.66 14 21.32 14 22 C13.030625 22.639375 12.06125 23.27875 11.0625 23.9375 C7.75744775 25.71061007 7.75744775 25.71061007 7 29 C6.34 29 5.68 29 5 29 C4.896875 29.763125 4.79375 30.52625 4.6875 31.3125 C3.93965597 34.23589031 3.39335648 35.22714335 1 37 C-2.45356564 38.15382285 -5.75480431 38.13343868 -9.375 38.125 C-10.47585937 38.12757812 -11.57671875 38.13015625 -12.7109375 38.1328125 C-15.88996116 38.00444337 -18.87772455 37.59426995 -22 37 C-21.979375 36.21625 -21.95875 35.4325 -21.9375 34.625 C-21.81315937 32.01885039 -21.81315937 32.01885039 -23 30 C-22.01 29.67 -21.02 29.34 -20 29 C-19.67 28.01 -19.34 27.02 -19 26 C-18.01 25.34 -17.02 24.68 -16 24 C-16 23.67 -16 23.34 -16 23 C-10.72 23 -5.44 23 0 23 C0 20.36 0 17.72 0 15 C1.5 11.5 1.5 11.5 3 9 C3.66 9 4.32 9 5 9 C5.41870553 6.66928121 5.41870553 6.66928121 5 4 C2.60140956 1.66369252 2.60140956 1.66369252 0 0 Z " fill="#B0AFC6" transform="translate(103,32)"/>
<path d="M0 0 C0.66 0.33 1.32 0.66 2 1 C1.835 1.5775 1.67 2.155 1.5 2.75 C0.85537969 5.26664369 0.85537969 5.26664369 1 9 C1.61488281 8.69964844 2.22976562 8.39929687 2.86328125 8.08984375 C3.67152344 7.70957031 4.47976562 7.32929687 5.3125 6.9375 C6.51326172 6.36322266 6.51326172 6.36322266 7.73828125 5.77734375 C10 5 10 5 13 6 C11.88194029 9.87020669 10.9704892 12.28781421 8 15 C7.67 15.99 7.34 16.98 7 18 C8.98 17.67 10.96 17.34 13 17 C12.67 17.66 12.34 18.32 12 19 C10.26554661 19.4772657 8.51102851 19.88272667 6.75 20.25 C1.17018246 21.67756371 -1.00404001 23.10659868 -4 28 C-4.3725822 29.32290264 -4.71540226 30.65542088 -5 32 C-5.84304687 32.20496094 -6.68609375 32.40992188 -7.5546875 32.62109375 C-8.65039062 32.89050781 -9.74609375 33.15992188 -10.875 33.4375 C-11.96554688 33.70433594 -13.05609375 33.97117188 -14.1796875 34.24609375 C-16.92484721 34.8786478 -16.92484721 34.8786478 -19 36 C-21.0374763 36.22858114 -23.08040303 36.41024278 -25.125 36.5625 C-26.22070312 36.64628906 -27.31640625 36.73007813 -28.4453125 36.81640625 C-29.28835937 36.87699219 -30.13140625 36.93757813 -31 37 C-30.67 36.01 -30.34 35.02 -30 34 C-27.47497239 32.83117097 -25.0524018 31.85447453 -22.4375 30.9375 C-21.74591797 30.68162109 -21.05433594 30.42574219 -20.34179688 30.16210938 C-15.62082715 28.45059286 -10.88742965 27.14901327 -6 26 C-9.44708859 23.90493748 -9.44708859 23.90493748 -13 22 C-13 22.66 -13 23.32 -13 24 C-13.61875 23.79375 -14.2375 23.5875 -14.875 23.375 C-15.57625 23.25125 -16.2775 23.1275 -17 23 C-17.66 23.66 -18.32 24.32 -19 25 C-20.31418613 25.90350296 -21.64984376 26.77618854 -23 27.625 C-23.70125 28.07101563 -24.4025 28.51703125 -25.125 28.9765625 C-27 30 -27 30 -29 30 C-29 30.66 -29 31.32 -29 32 C-30.98 32.66 -32.96 33.32 -35 34 C-30.03217139 28.53232826 -24.01214644 24.83612223 -17.86132812 20.81640625 C-11.67056138 16.71274249 -11.67056138 16.71274249 -7 11 C-6.87625 9.824375 -6.7525 8.64875 -6.625 7.4375 C-6 4 -6 4 -2.9375 1.5625 C-1.968125 1.046875 -0.99875 0.53125 0 0 Z " fill="#DFE1EC" transform="translate(154,53)"/>
<path d="M0 0 C0 0.66 0 1.32 0 2 C3.3 2 6.6 2 10 2 C10 2.66 10 3.32 10 4 C6.62182575 4.84454356 4.32534757 5.10844919 1 4 C1 4.66 1 5.32 1 6 C2.670625 5.9690625 2.670625 5.9690625 4.375 5.9375 C8 6 8 6 10 7 C10 7.99 10 8.98 10 10 C9.34 10 8.68 10 8 10 C8 10.66 8 11.32 8 12 C7.34 12 6.68 12 6 12 C6 12.66 6 13.32 6 14 C6.66 14 7.32 14 8 14 C8.33 14.99 8.66 15.98 9 17 C4.92630576 19.03684712 2.41062136 19.0257259 -2 18 C-2 18.99 -2 19.98 -2 21 C-3.98 21 -5.96 21 -8 21 C-8.33 21.66 -8.66 22.32 -9 23 C-9.5775 22.505 -10.155 22.01 -10.75 21.5 C-13.10400629 19.63019987 -13.10400629 19.63019987 -17 20 C-16.08505522 13.59538654 -12.97525678 9.70552396 -8.4375 5.25 C-7.65246094 4.47140625 -6.86742188 3.6928125 -6.05859375 2.890625 C-2.91115702 0 -2.91115702 0 0 0 Z " fill="#EFF1F7" transform="translate(85,35)"/>
<path d="M0 0 C0.66 0 1.32 0 2 0 C2 3.63457481 1.96329332 5.92484036 -0.51367188 8.68945312 C-5.60942139 13.00124118 -10.90268887 16.80471745 -16.5 20.4375 C-17.32242188 20.97826172 -18.14484375 21.51902344 -18.9921875 22.07617188 C-20.99132032 23.38955564 -22.99385908 24.69735696 -25 26 C-24.67 26 -24.34 26 -24 26 C-23.01 26 -22.02 26 -21 26 C-21 25.34 -21 24.68 -21 24 C-18.6640625 22.30859375 -18.6640625 22.30859375 -15.625 20.4375 C-14.62726563 19.81746094 -13.62953125 19.19742188 -12.6015625 18.55859375 C-11.09604932 17.65664216 -9.56973542 16.78486771 -8 16 C-8 16.66 -8 17.32 -8 18 C-7.01 18 -6.02 18 -5 18 C-5 17.34 -5 16.68 -5 16 C-3.02 16.33 -1.04 16.66 1 17 C1 17.66 1 18.32 1 19 C1.66 19.33 2.32 19.66 3 20 C1.80375 20.391875 0.6075 20.78375 -0.625 21.1875 C-6.14299769 23.01803193 -11.59907405 25.01519537 -17.05859375 27.01171875 C-20 28 -20 28 -22 28 C-22 28.66 -22 29.32 -22 30 C-20.20793453 29.85915204 -18.41635083 29.71216299 -16.625 29.5625 C-15.62726563 29.48128906 -14.62953125 29.40007812 -13.6015625 29.31640625 C-11.02072387 29.15034374 -11.02072387 29.15034374 -9 28 C-7.00039988 27.960008 -4.99952758 27.95653201 -3 28 C-7.84990107 31.23326738 -13.46921261 32.1957574 -19.0625 33.6875 C-20.27228516 34.02072266 -21.48207031 34.35394531 -22.72851562 34.69726562 C-24.45811523 35.16229492 -24.45811523 35.16229492 -26.22265625 35.63671875 C-27.28234619 35.92248779 -28.34203613 36.20825684 -29.43383789 36.50268555 C-32 37 -32 37 -34 36 C-33.01 35.01 -32.02 34.02 -31 33 C-32.32 31.68 -33.64 30.36 -35 29 C-33.35 29 -31.7 29 -30 29 C-29.94779297 28.15695313 -29.94779297 28.15695313 -29.89453125 27.296875 C-28.53261788 23.79990967 -25.69313723 22.27446304 -22.6875 20.25 C-22.06319092 19.81389404 -21.43888184 19.37778809 -20.7956543 18.9284668 C-17.7465337 16.8119548 -14.663496 14.77039824 -11.5078125 12.81640625 C-3.68782537 8.01952962 -3.68782537 8.01952962 0 0 Z " fill="#C8C8DB" transform="translate(146,59)"/>
<path d="M0 0 C5.70341857 3.45456469 8.87829428 6.33288353 10.61328125 12.875 C11.05368009 15.29496941 11.23734071 17.54747934 11 20 C11.99 20.33 12.98 20.66 14 21 C15.55676214 24.60513338 16.98922006 28.14204176 16 32 C13.55642977 34.11473711 11.00220598 35.79452532 8 37 C7.01 36.67 6.02 36.34 5 36 C6.485 35.505 6.485 35.505 8 35 C7.34 33.02 6.68 31.04 6 29 C3.69 29.33 1.38 29.66 -1 30 C1 28 1 28 3 26 C2.01 25.67 1.02 25.34 0 25 C0.309375 24.319375 0.61875 23.63875 0.9375 22.9375 C2.13370649 19.63034088 2.59005397 16.48454122 3 13 C2.34 12.67 1.68 12.34 1 12 C0.33333333 10 -0.33333333 8 -1 6 C-1.66 5.67 -2.32 5.34 -3 5 C-3 4.34 -3 3.68 -3 3 C-2.01 3 -1.02 3 0 3 C0 2.01 0 1.02 0 0 Z " fill="#9A99AF" transform="translate(167,43)"/>
<path d="M0 0 C0.66 0 1.32 0 2 0 C1.45276317 3.37462715 0.9451 5.08235 -1 8 C-0.34 7.67 0.32 7.34 1 7 C1.6875 9.25 1.6875 9.25 2 12 C0.25766748 15.20955991 -1.65836101 16.61725283 -5 18 C-1.86650268 19.04449911 -1.01031744 18.93423645 2 18 C2 18.66 2 19.32 2 20 C1.34 20 0.68 20 0 20 C-0.66 21.32 -1.32 22.64 -2 24 C-3.093125 23.773125 -4.18625 23.54625 -5.3125 23.3125 C-8.90531273 22.59853617 -8.90531273 22.59853617 -10.9375 24.4375 C-11.288125 24.953125 -11.63875 25.46875 -12 26 C-12.33 25.34 -12.66 24.68 -13 24 C-15.97 24 -18.94 24 -22 24 C-18.5 20.5 -18.5 20.5 -15 17 C-15.3185177 14.89179203 -15.3185177 14.89179203 -16 13 C-15.01 12.34 -14.02 11.68 -13 11 C-12.27617533 8.94074861 -12.27617533 8.94074861 -12 7 C-12.99 7 -13.98 7 -15 7 C-15.66 6.67 -16.32 6.34 -17 6 C-15.02 4.35 -13.04 2.7 -11 1 C-10.67 1.66 -10.34 2.32 -10 3 C-6.9681144 4.88186002 -5.75482645 5 -2 5 C-1.34 3.35 -0.68 1.7 0 0 Z " fill="#9C9DB7" transform="translate(138,29)"/>
<path d="M0 0 C11.88 0 23.76 0 36 0 C36 2.64 36 5.28 36 8 C24.12 8 12.24 8 0 8 C0 5.36 0 2.72 0 0 Z " fill="#393333" transform="translate(8,87)"/>
<path d="M0 0 C0.66 1.98 1.32 3.96 2 6 C1.34 6.66 0.68 7.32 0 8 C-0.33 8.66 -0.66 9.32 -1 10 C-10.81902414 13.89375095 -22.50257823 17.35656407 -33 15 C-33 14.67 -33 14.34 -33 14 C-28.545 13.505 -28.545 13.505 -24 13 C-23.938125 12.29875 -23.87625 11.5975 -23.8125 10.875 C-22.7449898 7.09765623 -21.00213658 4.47190848 -18 2 C-12.00822375 -0.23422165 -6.34293692 -0.23396079 0 0 Z " fill="#D1D1E0" transform="translate(173,72)"/>
<path d="M0 0 C39.6 0 79.2 0 120 0 C120 0.33 120 0.66 120 1 C98.22 1 76.44 1 54 1 C53.67 1.99 53.34 2.98 53 4 C53 3.34 53 2.68 53 2 C50.36 2 47.72 2 45 2 C45 2.66 45 3.32 45 4 C46.98 4 48.96 4 51 4 C51.495 4.99 51.495 4.99 52 6 C49.27076612 6.0270817 46.54180363 6.04687847 43.8125 6.0625 C43.04357422 6.07087891 42.27464844 6.07925781 41.48242188 6.08789062 C37.51473211 6.10491934 33.87428766 5.98604115 30 5 C30 4.67 30 4.34 30 4 C33.3 4 36.6 4 40 4 C40 3.34 40 2.68 40 2 C30.76 2 21.52 2 12 2 C12 2.66 12 3.32 12 4 C14.31 4 16.62 4 19 4 C18.67 4.66 18.34 5.32 18 6 C14.04 6 10.08 6 6 6 C6.33 4.68 6.66 3.36 7 2 C5.02 2 3.04 2 1 2 C0.67 2.66 0.34 3.32 0 4 C0 2.68 0 1.36 0 0 Z " fill="#DDDDDE" transform="translate(0,0)"/>
<path d="M0 0 C0.66 0.99 1.32 1.98 2 3 C1.34 4.32 0.68 5.64 0 7 C-0.66 7 -1.32 7 -2 7 C-2.103125 7.763125 -2.20625 8.52625 -2.3125 9.3125 C-3.06034403 12.23589031 -3.60664352 13.22714335 -6 15 C-9.45356564 16.15382285 -12.75480431 16.13343868 -16.375 16.125 C-17.47585937 16.12757812 -18.57671875 16.13015625 -19.7109375 16.1328125 C-22.88996116 16.00444337 -25.87772455 15.59426995 -29 15 C-28.979375 14.21625 -28.95875 13.4325 -28.9375 12.625 C-28.81315937 10.01885039 -28.81315937 10.01885039 -30 8 C-29.01 7.67 -28.02 7.34 -27 7 C-26.67 6.01 -26.34 5.02 -26 4 C-23 2 -23 2 -20 1 C-20 1.66 -20 2.32 -20 3 C-18.68 3.33 -17.36 3.66 -16 4 C-19.465 5.485 -19.465 5.485 -23 7 C-21.14453096 9.28585786 -21.14453096 9.28585786 -18.25 9.23046875 C-17.1775 9.21628906 -16.105 9.20210937 -15 9.1875 C-13.39125 9.17783203 -13.39125 9.17783203 -11.75 9.16796875 C-9.03872502 9.18263423 -9.03872502 9.18263423 -7 8 C-9.31 8 -11.62 8 -14 8 C-14 7.67 -14 7.34 -14 7 C-12.3603125 6.62875 -12.3603125 6.62875 -10.6875 6.25 C-6.76412967 4.92004396 -6.20063689 4.24855921 -4 1 C-1.8125 0.25 -1.8125 0.25 0 0 Z " fill="#B6B6CD" transform="translate(110,54)"/>
<path d="M0 0 C3.4375 1 3.4375 1 5.375 2.75 C6.67120853 5.49491218 6.96237013 7.00074212 6.4375 10 C4.4375 12.3125 4.4375 12.3125 2.4375 14 C5.4075 14.495 5.4075 14.495 8.4375 15 C8.4375 15.66 8.4375 16.32 8.4375 17 C2.4975 17 -3.4425 17 -9.5625 17 C-9.5625 16.34 -9.5625 15.68 -9.5625 15 C-7.5825 14.67 -5.6025 14.34 -3.5625 14 C-4.2225 13.46375 -4.8825 12.9275 -5.5625 12.375 C-7.5625 10 -7.5625 10 -8.0625 7 C-7.5625 4 -7.5625 4 -6 1.5625 C-3.5625 0 -3.5625 0 0 0 Z " fill="#BFBFD2" transform="translate(42.5625,133)"/>
<path d="M0 0 C0 0.66 0 1.32 0 2 C0.66 2 1.32 2 2 2 C2 2.99 2 3.98 2 5 C6.455 4.505 6.455 4.505 11 4 C8.53194954 11.29196726 5.6991618 14.57951457 -0.66015625 18.8828125 C-3 20 -3 20 -6 19 C-4.02 17.68 -2.04 16.36 0 15 C-2.71003293 12.32668287 -2.71003293 12.32668287 -6 11 C-6.48951049 4.63636364 -6.48951049 4.63636364 -4.125 1.5625 C-2 0 -2 0 0 0 Z " fill="#E8EAF3" transform="translate(136,54)"/>
<path d="M0 0 C1.65 0 3.3 0 5 0 C5 3.96 5 7.92 5 12 C3.35 12.33 1.7 12.66 0 13 C-1.66666667 11.33333333 -3.33333333 9.66666667 -5 8 C-8.21061788 7.58109782 -8.21061788 7.58109782 -11 8 C-11 8.66 -11 9.32 -11 10 C-14 12 -14 12 -17 12 C-17 12.66 -17 13.32 -17 14 C-17.99 14 -18.98 14 -20 14 C-19.34 12.68 -18.68 11.36 -18 10 C-16.68 10 -15.36 10 -14 10 C-13.67 8.35 -13.34 6.7 -13 5 C-12.14535156 4.72285156 -11.29070312 4.44570313 -10.41015625 4.16015625 C-9.30542969 3.79792969 -8.20070313 3.43570312 -7.0625 3.0625 C-5.96035156 2.70285156 -4.85820312 2.34320312 -3.72265625 1.97265625 C-1.11876525 1.26143332 -1.11876525 1.26143332 0 0 Z " fill="#87869E" transform="translate(134,14)"/>
<path d="M0 0 C0.33 1.32 0.66 2.64 1 4 C1.99 4 2.98 4 4 4 C3.67 4.99 3.34 5.98 3 7 C4.65 6.34 6.3 5.68 8 5 C6.58426179 8.39187279 4.95769034 10.09697541 2 12.25 C1.29875 12.77078125 0.5975 13.2915625 -0.125 13.828125 C-2 15 -2 15 -4 15 C-3.67 14.01 -3.34 13.02 -3 12 C-3.99 11.67 -4.98 11.34 -6 11 C-7.96301592 14.50538557 -8.95902388 18.13351728 -10 22 C-8.68 22.66 -7.36 23.32 -6 24 C-6.33 24.99 -6.66 25.98 -7 27 C-7.33 26.34 -7.66 25.68 -8 25 C-8.66 24.690625 -9.32 24.38125 -10 24.0625 C-12 23 -12 23 -13 20 C-12 18 -12 18 -11 16 C-11.020625 15.175 -11.04125 14.35 -11.0625 13.5 C-10.98471553 10.38862119 -10.13103449 9.21299735 -8 7 C-7.34 7 -6.68 7 -6 7 C-6 6.01 -6 5.02 -6 4 C-4.35 3.67 -2.7 3.34 -1 3 C-0.67 2.01 -0.34 1.02 0 0 Z " fill="#C2C2D7" transform="translate(120,60)"/>
<path d="M0 0 C0.68924561 0.05534912 1.37849121 0.11069824 2.08862305 0.16772461 C3.53555542 0.28386108 3.53555542 0.28386108 5.01171875 0.40234375 C6.07447021 0.48766357 7.13722168 0.5729834 8.23217773 0.66088867 C10.53761495 0.84544745 12.84311664 1.02920267 15.14868164 1.2121582 C24.9498024 1.99013568 24.9498024 1.99013568 29.484375 2.390625 C31.19367188 2.53757812 31.19367188 2.53757812 32.9375 2.6875 C33.89527344 2.77386719 34.85304687 2.86023438 35.83984375 2.94921875 C38.05046901 3.16981157 38.05046901 3.16981157 40 2 C42.56640625 2.453125 42.56640625 2.453125 45.5625 3.25 C47.04943359 3.62898438 47.04943359 3.62898438 48.56640625 4.015625 C49.36949219 4.34046875 50.17257813 4.6653125 51 5 C51.495 6.485 51.495 6.485 52 8 C49.525 7.01 49.525 7.01 47 6 C46.67 6.66 46.34 7.32 46 8 C45.01 7.67 44.02 7.34 43 7 C41.64603229 6.88800728 40.28786815 6.82247295 38.9296875 6.7890625 C37.72046631 6.74942383 37.72046631 6.74942383 36.48681641 6.70898438 C35.62491699 6.68126953 34.76301758 6.65355469 33.875 6.625 C24.36637071 6.24472397 15.31512612 4.85898395 6 3 C4.00135131 2.65865775 2.00181196 2.32227313 0 2 C0 1.34 0 0.68 0 0 Z " fill="#C5C5DA" transform="translate(110,103)"/>
<path d="M0 0 C0.66 0.33 1.32 0.66 2 1 C1.01 1.99 0.02 2.98 -1 4 C-0.67 2.68 -0.34 1.36 0 0 Z M-1 5 C-1.625 7.390625 -1.625 7.390625 -3 10 C-5.75 11.109375 -5.75 11.109375 -9 11.75 C-13.12312685 12.52005677 -13.12312685 12.52005677 -17 14 C-19.0374763 14.22858114 -21.08040303 14.41024278 -23.125 14.5625 C-24.22070312 14.64628906 -25.31640625 14.73007813 -26.4453125 14.81640625 C-27.28835937 14.87699219 -28.13140625 14.93757813 -29 15 C-28.67 14.01 -28.34 13.02 -28 12 C-25.47497239 10.83117097 -23.0524018 9.85447453 -20.4375 8.9375 C-19.74591797 8.68162109 -19.05433594 8.42574219 -18.34179688 8.16210938 C-5.49064593 3.50311802 -5.49064593 3.50311802 -1 5 Z " fill="#DADAE7" transform="translate(152,75)"/>
<path d="M0 0 C0.66 0 1.32 0 2 0 C2 0.66 2 1.32 2 2 C2.99 1.34 3.98 0.68 5 0 C6.99291992 -0.22705078 6.99291992 -0.22705078 9.23046875 -0.1953125 C10.43413086 -0.18564453 10.43413086 -0.18564453 11.66210938 -0.17578125 C12.49548828 -0.15902344 13.32886719 -0.14226562 14.1875 -0.125 C15.4549707 -0.11146484 15.4549707 -0.11146484 16.74804688 -0.09765625 C18.83215243 -0.07410703 20.91611217 -0.03823647 23 0 C23 1.65 23 3.3 23 5 C23.33 3.35 23.66 1.7 24 0 C24.66 0.33 25.32 0.66 26 1 C26 2.65 26 4.3 26 6 C22.20375456 6.8436101 18.78021083 7.48551204 14.9375 6.4375 C12.79995606 5.77922612 12.79995606 5.77922612 10 7 C9.67 5.35 9.34 3.7 9 2 C8.01 2 7.02 2 6 2 C6.33 3.65 6.66 5.3 7 7 C5.35 7 3.7 7 2 7 C1.67 6.34 1.34 5.68 1 5 C0.01 5.66 -0.98 6.32 -2 7 C-1.34 4.69 -0.68 2.38 0 0 Z " fill="#A3A0A4" transform="translate(13,74)"/>
<path d="M0 0 C6.625 -0.25 6.625 -0.25 10 2 C9.67 2.66 9.34 3.32 9 4 C8.01 4 7.02 4 6 4 C5.01 5.485 5.01 5.485 4 7 C2.00577205 7.36628677 0.00546689 7.70131344 -2 8 C-2.33 8.66 -2.66 9.32 -3 10 C-3.66 10 -4.32 10 -5 10 C-5 10.99 -5 11.98 -5 13 C-5.66 13 -6.32 13 -7 13 C-7 13.66 -7 14.32 -7 15 C-7.99 15.33 -8.98 15.66 -10 16 C-10 14.68 -10 13.36 -10 12 C-12.475 11.01 -12.475 11.01 -15 10 C-15 9.34 -15 8.68 -15 8 C-14.01 8 -13.02 8 -12 8 C-12 7.01 -12 6.02 -12 5 C-10.35 4.67 -8.7 4.34 -7 4 C-7.33 4.99 -7.66 5.98 -8 7 C-7.01 7 -6.02 7 -5 7 C-5 6.34 -5 5.68 -5 5 C-3.02 4.34 -1.04 3.68 1 3 C0.67 2.01 0.34 1.02 0 0 Z " fill="#DCDDEB" transform="translate(122,21)"/>
<path d="M0 0 C4.82382465 0.26799026 6.86565605 2.50744532 10 6 C9.01 6.495 9.01 6.495 8 7 C7.28293018 8.98248715 6.61709587 10.98415349 6 13 C5.67 13.66 5.34 14.32 5 15 C4.01 14.67 3.02 14.34 2 14 C2.66 13.67 3.32 13.34 4 13 C4 11.35 4 9.7 4 8 C3.34 8 2.68 8 2 8 C1.34 9.98 0.68 11.96 0 14 C-0.66 14 -1.32 14 -2 14 C-1.67 14.99 -1.34 15.98 -1 17 C-1.66 17 -2.32 17 -3 17 C-3 17.66 -3 18.32 -3 19 C-3.66 18.67 -4.32 18.34 -5 18 C-5 17.01 -5 16.02 -5 15 C-5.66 15 -6.32 15 -7 15 C-7 14.34 -7 13.68 -7 13 C-6.34 13 -5.68 13 -5 13 C-5 12.34 -5 11.68 -5 11 C-4.34 11 -3.68 11 -3 11 C-2.896875 10.05125 -2.79375 9.1025 -2.6875 8.125 C-2 5 -2 5 1 3 C0.34 2.34 -0.32 1.68 -1 1 C-0.67 0.67 -0.34 0.34 0 0 Z " fill="#DDDFEA" transform="translate(98,34)"/>
<path d="M0 0 C0.66 0.66 1.32 1.32 2 2 C-0.5654594 4.5654594 -2.47686668 4.54046087 -6 5 C-5.34 6.65 -4.68 8.3 -4 10 C-2.03243548 9.96877057 -2.03243548 9.96877057 0 9 C1.3045656 6.00384054 1.3045656 6.00384054 2 3 C2.66 3.33 3.32 3.66 4 4 C4.35706695 10.30818278 4.35706695 10.30818278 3 12.9375 C-0.24104443 14.65930485 -3.42422767 14.66300779 -7 14 C-9.6923481 11.81246717 -9.93936827 10.41576045 -10.4375 7 C-10 4 -10 4 -8.375 1.625 C-5.35164037 -0.44361448 -3.59411792 -0.46879799 0 0 Z " fill="#F3F8FB" transform="translate(161,131)"/>
<path d="M0 0 C7.92 0 15.84 0 24 0 C24 0.99 24 1.98 24 3 C23.34 3 22.68 3 22 3 C22 3.66 22 4.32 22 5 C14.81910743 5.94552678 9.62324454 6.31162227 3 3 C3 3.66 3 4.32 3 5 C2.01 4.67 1.02 4.34 0 4 C0 2.68 0 1.36 0 0 Z " fill="#AFA9BB" transform="translate(176,0)"/>
<path d="M0 0 C0.66 0 1.32 0 2 0 C2 3.64306656 1.96477843 5.92816129 -0.5246582 8.69384766 C-5.53375207 12.9225866 -10.70818889 16.7162715 -16.1875 20.3125 C-16.96802734 20.83650391 -17.74855469 21.36050781 -18.55273438 21.90039062 C-22.25925549 24.35568578 -25.7452965 26.59313411 -30 28 C-28.4846933 23.91666511 -26.05173872 22.43072166 -22.44140625 20.13671875 C-21.3219768 19.40734413 -20.2028454 18.6775119 -19.08398438 17.94726562 C-17.32602775 16.81524253 -15.56486018 15.68899238 -13.79760742 14.5715332 C-12.08515411 13.4834892 -10.38806731 12.37417691 -8.69140625 11.26171875 C-7.67248291 10.61162842 -6.65355957 9.96153809 -5.60375977 9.29174805 C-2.31686862 6.39872909 -1.44692283 4.0888613 0 0 Z " fill="#811F2E" transform="translate(146,59)"/>
<path d="M0 0 C-0.33 1.98 -0.66 3.96 -1 6 C-4.3 6.66 -7.6 7.32 -11 8 C-11 8.99 -11 9.98 -11 11 C-11.99 11 -12.98 11 -14 11 C-14 11.66 -14 12.32 -14 13 C-13.195625 13.12375 -12.39125 13.2475 -11.5625 13.375 C-10.716875 13.58125 -9.87125 13.7875 -9 14 C-8.67 14.66 -8.34 15.32 -8 16 C-8.33 16.99 -8.66 17.98 -9 19 C-9.66 19 -10.32 19 -11 19 C-11 18.01 -11 17.02 -11 16 C-13.31 15.34 -15.62 14.68 -18 14 C-17.34 13.34 -16.68 12.68 -16 12 C-15.896875 11.34 -15.79375 10.68 -15.6875 10 C-15.3471875 9.01 -15.3471875 9.01 -15 8 C-12.4375 6.75 -12.4375 6.75 -10 6 C-10 5.34 -10 4.68 -10 4 C-10.66 3.67 -11.32 3.34 -12 3 C-4.71428571 -0.42857143 -4.71428571 -0.42857143 0 0 Z " fill="#ECEDF6" transform="translate(121,18)"/>
<path d="M0 0 C7.26 0 14.52 0 22 0 C22 0.66 22 1.32 22 2 C20.35 2 18.7 2 17 2 C16.67 3.32 16.34 4.64 16 6 C12.04 6 8.08 6 4 6 C3.67 5.01 3.34 4.02 3 3 C2.01 2.67 1.02 2.34 0 2 C0 1.34 0 0.68 0 0 Z " fill="#ACACBE" transform="translate(90,147)"/>
<path d="M0 0 C0.17835515 4.54805635 -0.00214565 7.8794254 -2 12 C-0.35 12 1.3 12 3 12 C2 14 2 14 -0.9375 15.1875 C-4 16 -4 16 -6 15 C-6.99 15 -7.98 15 -9 15 C-8.58225916 12.57710315 -8.30387062 11.29120935 -6.5 9.5625 C-4.53426922 7.51486377 -4.37331439 5.76252651 -4 3 C-4.886875 3.309375 -5.77375 3.61875 -6.6875 3.9375 C-9.46709155 4.8290671 -12.13136375 5.49377007 -15 6 C-13.54967114 3.09934229 -11.5394707 2.64734288 -8.625 1.3125 C-7.15933594 0.62607422 -7.15933594 0.62607422 -5.6640625 -0.07421875 C-3 -1 -3 -1 0 0 Z " fill="#C7C7D7" transform="translate(170,56)"/>
<path d="M0 0 C0.99 0 1.98 0 3 0 C3 0.66 3 1.32 3 2 C4.32 2.33 5.64 2.66 7 3 C2.545 4.485 2.545 4.485 -2 6 C-2 6.66 -2 7.32 -2 8 C-2.66 8 -3.32 8 -4 8 C-4 8.66 -4 9.32 -4 10 C-2.94039063 10.10957031 -1.88078125 10.21914062 -0.7890625 10.33203125 C0.5990403 10.49147549 1.98705698 10.65167084 3.375 10.8125 C4.07367188 10.88275391 4.77234375 10.95300781 5.4921875 11.02539062 C7.34332338 11.24788292 9.17538205 11.61662522 11 12 C11.99 13.485 11.99 13.485 13 15 C10.95840905 15.0272616 8.91671037 15.04651345 6.875 15.0625 C5.73804687 15.07410156 4.60109375 15.08570312 3.4296875 15.09765625 C0.1870844 15.005327 -2.81932612 14.61389906 -6 14 C-5.979375 13.21625 -5.95875 12.4325 -5.9375 11.625 C-5.81315937 9.01885039 -5.81315937 9.01885039 -7 7 C-6.01 6.67 -5.02 6.34 -4 6 C-3.67 5.01 -3.34 4.02 -3 3 C-2.01 2.34 -1.02 1.68 0 1 C0 0.67 0 0.34 0 0 Z " fill="#BDBDD3" transform="translate(87,55)"/>
<path d="M0 0 C0.97001953 0.05220703 1.94003906 0.10441406 2.93945312 0.15820312 C5.31420788 0.28688442 7.68843229 0.42179796 10.0625 0.5625 C10.0625 1.2225 10.0625 1.8825 10.0625 2.5625 C8.4125 2.8925 6.7625 3.2225 5.0625 3.5625 C5.0625 3.8925 5.0625 4.2225 5.0625 4.5625 C-0.5475 4.5625 -6.1575 4.5625 -11.9375 4.5625 C-11.9375 4.2325 -11.9375 3.9025 -11.9375 3.5625 C-14.9075 3.0675 -14.9075 3.0675 -17.9375 2.5625 C-17.9375 1.9025 -17.9375 1.2425 -17.9375 0.5625 C-11.86770983 -0.57400717 -6.14688855 -0.36553609 0 0 Z " fill="#CFCFD2" transform="translate(29.9375,1.4375)"/>
<path d="M0 0 C0.90105469 0.02707031 1.80210937 0.05414063 2.73046875 0.08203125 C3.76107422 0.13423828 3.76107422 0.13423828 4.8125 0.1875 C5.4725 2.1675 6.1325 4.1475 6.8125 6.1875 C6.1525 6.8475 5.4925 7.5075 4.8125 8.1875 C4.4825 8.8475 4.1525 9.5075 3.8125 10.1875 C1.49093403 10.59479228 -0.8443787 10.93188677 -3.1875 11.1875 C-2.5275 10.1975 -1.8675 9.2075 -1.1875 8.1875 C-1.49590599 6.03475052 -1.49590599 6.03475052 -2.1875 4.1875 C-5.1575 3.6925 -5.1575 3.6925 -8.1875 3.1875 C-5.67753317 0.01043235 -3.96125134 -0.15433447 0 0 Z " fill="#AEADC2" transform="translate(168.1875,71.8125)"/>
<path d="M0 0 C1.32 0 2.64 0 4 0 C4.33 0.66 4.66 1.32 5 2 C6.88764903 2.68472665 6.88764903 2.68472665 9.0625 3.125 C9.79597656 3.29257812 10.52945313 3.46015625 11.28515625 3.6328125 C11.85105469 3.75398438 12.41695312 3.87515625 13 4 C8.18099548 8.97963801 8.18099548 8.97963801 3.375 9.0625 C2.26125 9.041875 1.1475 9.02125 0 9 C-1.36623674 6.26752652 -1.128426 4.01801098 -1 1 C-0.67 0.67 -0.34 0.34 0 0 Z " fill="#8D8BA2" transform="translate(142,48)"/>
<path d="M0 0 C0.33 0.66 0.66 1.32 1 2 C1.99 2 2.98 2 4 2 C4 1.34 4 0.68 4 0 C6.97 0.495 6.97 0.495 10 1 C10 1.66 10 2.32 10 3 C10.66 3.33 11.32 3.66 12 4 C10.54494642 4.52992692 9.08581873 5.0486789 7.625 5.5625 C6.81289062 5.85253906 6.00078125 6.14257812 5.1640625 6.44140625 C3 7 3 7 1 6 C1 5.34 1 4.68 1 4 C0.34 4 -0.32 4 -1 4 C-1 4.66 -1 5.32 -1 6 C-7.625 9.125 -7.625 9.125 -11 8 C-7.37 5.36 -3.74 2.72 0 0 Z " fill="#CECFE0" transform="translate(137,75)"/>
<path d="M0 0 C8.91 0 17.82 0 27 0 C26.67 0.99 26.34 1.98 26 3 C26 2.34 26 1.68 26 1 C23.36 1 20.72 1 18 1 C18 1.66 18 2.32 18 3 C19.98 3 21.96 3 24 3 C24.33 3.66 24.66 4.32 25 5 C22.27076612 5.0270817 19.54180363 5.04687847 16.8125 5.0625 C16.04357422 5.07087891 15.27464844 5.07925781 14.48242188 5.08789062 C10.51473211 5.10491934 6.87428766 4.98604115 3 4 C3 3.67 3 3.34 3 3 C6.3 3 9.6 3 13 3 C13 2.34 13 1.68 13 1 C8.71 1 4.42 1 0 1 C0 0.67 0 0.34 0 0 Z " fill="#EDEEF2" transform="translate(27,1)"/>
<path d="M0 0 C0.99 0.33 1.98 0.66 3 1 C3.042721 2.66611905 3.04063832 4.33382885 3 6 C2.67 6.33 2.34 6.66 2 7 C2.66 7.33 3.32 7.66 4 8 C4 9.98 4 11.96 4 14 C0.37 14 -3.26 14 -7 14 C-6.67 13.34 -6.34 12.68 -6 12 C-5.34 12 -4.68 12 -4 12 C-3.87625 11.195625 -3.7525 10.39125 -3.625 9.5625 C-3.41875 8.716875 -3.2125 7.87125 -3 7 C-2.34 6.67 -1.68 6.34 -1 6 C-0.34227572 2.97065509 -0.34227572 2.97065509 0 0 Z " fill="#CACADA" transform="translate(99,41)"/>
<path d="M0 0 C0.88042969 0.08378906 1.76085937 0.16757813 2.66796875 0.25390625 C4.41013672 0.40666016 4.41013672 0.40666016 6.1875 0.5625 C7.33605469 0.66691406 8.48460937 0.77132812 9.66796875 0.87890625 C12.7067582 0.98934291 15.05725573 0.64498504 18 0 C21.3125 0.4375 21.3125 0.4375 24 1 C23.67 1.99 23.34 2.98 23 4 C18.73316009 5.16368361 15.32923798 4.73515362 11 4 C10.34 4 9.68 4 9 4 C6.33333333 4 3.66666667 4 1 4 C0.67 2.68 0.34 1.36 0 0 Z " fill="#706A6D" transform="translate(19,88)"/>
<path d="M0 0 C2 0.3125 2 0.3125 4 1 C4.33 1.66 4.66 2.32 5 3 C6.98 2.67 8.96 2.34 11 2 C11 2.66 11 3.32 11 4 C10.34 4 9.68 4 9 4 C8.34 5.32 7.68 6.64 7 8 C5.906875 7.773125 4.81375 7.54625 3.6875 7.3125 C0.09468727 6.59853617 0.09468727 6.59853617 -1.9375 8.4375 C-2.288125 8.953125 -2.63875 9.46875 -3 10 C-3.99 8.68 -4.98 7.36 -6 6 C-4 4 -2 2 0 0 Z " fill="#A3A3BC" transform="translate(129,45)"/>
<path d="M0 0 C0.99 0 1.98 0 3 0 C2.45276317 3.37462715 1.9451 5.08235 0 8 C-0.33 9.175625 -0.66 10.35125 -1 11.5625 C-2 15 -2 15 -4 17 C-4.99 16.67 -5.98 16.34 -7 16 C-6.360625 15.4225 -5.72125 14.845 -5.0625 14.25 C-3.01776132 12.01937599 -2.41794801 10.92563609 -2 8 C-2.639375 7.731875 -3.27875 7.46375 -3.9375 7.1875 C-6 6 -6 6 -7 3 C-4 2 -4 2 -1 3 C-0.67 2.01 -0.34 1.02 0 0 Z " fill="#D8D9E9" transform="translate(129,51)"/>
<path d="M0 0 C6.93 0 13.86 0 21 0 C21 2.31 21 4.62 21 7 C17.04 7 13.08 7 9 7 C9 6.67 9 6.34 9 6 C9.71027344 5.87882812 10.42054687 5.75765625 11.15234375 5.6328125 C12.07144531 5.46523437 12.99054687 5.29765625 13.9375 5.125 C14.85402344 4.96257812 15.77054688 4.80015625 16.71484375 4.6328125 C17.46894531 4.42398438 18.22304688 4.21515625 19 4 C19.33 3.34 19.66 2.68 20 2 C16.7 1.67 13.4 1.34 10 1 C9.67 1.99 9.34 2.98 9 4 C9 3.34 9 2.68 9 2 C6.03 2 3.06 2 0 2 C0 1.34 0 0.68 0 0 Z " fill="#060201" transform="translate(23,87)"/>
<path d="M0 0 C0.66 0.33 1.32 0.66 2 1 C4.3400417 0.71758117 6.67504723 0.38749213 9 0 C10 3 10 3 9 6 C3.92679142 8.03581546 -1.60499453 8.2295747 -7 8 C-4.36095629 6.58622659 -1.92879371 5.62759865 1 5 C-0.32 4.34 -1.64 3.68 -3 3 C-2.01 2.67 -1.02 2.34 0 2 C0 1.34 0 0.68 0 0 Z " fill="#C4C4D7" transform="translate(158,78)"/>
<path d="M0 0 C0.66 0 1.32 0 2 0 C1.59102482 4.8990005 -0.39206367 6.6995983 -4.0625 9.8125 C-4.98160156 10.60269531 -5.90070313 11.39289062 -6.84765625 12.20703125 C-7.91306641 13.09455078 -7.91306641 13.09455078 -9 14 C-9 11 -9 11 -8 9 C-8.66 8.34 -9.32 7.68 -10 7 C-10.33 6.01 -10.66 5.02 -11 4 C-12.32 4.99 -13.64 5.98 -15 7 C-15.66 6.67 -16.32 6.34 -17 6 C-15.02 4.35 -13.04 2.7 -11 1 C-10.67 1.66 -10.34 2.32 -10 3 C-6.9681144 4.88186002 -5.75482645 5 -2 5 C-1.34 3.35 -0.68 1.7 0 0 Z " fill="#71667A" transform="translate(138,29)"/>
<path d="M0 0 C1.32 0 2.64 0 4 0 C4 1.65 4 3.3 4 5 C4.33 3.35 4.66 1.7 5 0 C5.66 0.33 6.32 0.66 7 1 C7 2.65 7 4.3 7 6 C2.42458161 7.01675964 -1.45613293 7.29824773 -6 6 C-6 4.35 -6 2.7 -6 1 C-5.01 1.495 -5.01 1.495 -4 2 C-3.67 2.99 -3.34 3.98 -3 5 C-2.5359375 4.0409375 -2.5359375 4.0409375 -2.0625 3.0625 C-1 1 -1 1 0 0 Z " fill="#8C888E" transform="translate(32,74)"/>
<path d="M0 0 C6.27 0 12.54 0 19 0 C19 0.33 19 0.66 19 1 C16.69 1 14.38 1 12 1 C12 1.66 12 2.32 12 3 C14.31 3 16.62 3 19 3 C18.67 3.66 18.34 4.32 18 5 C14.04 5 10.08 5 6 5 C6.33 3.68 6.66 2.36 7 1 C5.02 1 3.04 1 1 1 C0.67 1.66 0.34 2.32 0 3 C0 2.01 0 1.02 0 0 Z " fill="#F0F1F3" transform="translate(0,1)"/>
<path d="M0 0 C0.66 0.33 1.32 0.66 2 1 C-3.19444444 17.29166667 -3.19444444 17.29166667 -7 23 C-8.32 22.67 -9.64 22.34 -11 22 C-10.360625 21.236875 -9.72125 20.47375 -9.0625 19.6875 C-6.85767219 17.11753287 -6.85767219 17.11753287 -6 14 C-6.66 13.67 -7.32 13.34 -8 13 C-7.236875 12.525625 -6.47375 12.05125 -5.6875 11.5625 C-2.11391885 8.15513193 -1.23150936 4.68574293 0 0 Z " fill="#A4A4BB" transform="translate(146,15)"/>
<path d="M0 0 C6.625 -0.25 6.625 -0.25 10 2 C9.67 2.66 9.34 3.32 9 4 C8.01 4 7.02 4 6 4 C5.01 5.485 5.01 5.485 4 7 C0.875 7.1875 0.875 7.1875 -2 7 C-1.67 5.68 -1.34 4.36 -1 3 C-0.34 3 0.32 3 1 3 C0.67 2.01 0.34 1.02 0 0 Z " fill="#CFCFE0" transform="translate(122,21)"/>
<path d="M0 0 C0 3.96 0 7.92 0 12 C-0.66 12 -1.32 12 -2 12 C-2.33 9.69 -2.66 7.38 -3 5 C-3.66 5 -4.32 5 -5 5 C-5 4.34 -5 3.68 -5 3 C-5.9075 3.350625 -6.815 3.70125 -7.75 4.0625 C-11.00591313 5.00170571 -11.92749994 4.95514676 -15 4 C-13.44219668 3.32243118 -11.87849904 2.65840543 -10.3125 2 C-9.44238281 1.62875 -8.57226562 1.2575 -7.67578125 0.875 C-5 0 -5 0 0 0 Z " fill="#A8A7BD" transform="translate(139,14)"/>
<path d="M0 0 C4.09485638 -0.07183959 7.81320079 -0.02711601 11.875 0.5625 C14.89868793 1.28686632 14.89868793 1.28686632 17 0 C19.56640625 0.453125 19.56640625 0.453125 22.5625 1.25 C23.55378906 1.50265625 24.54507813 1.7553125 25.56640625 2.015625 C26.36949219 2.34046875 27.17257813 2.6653125 28 3 C28.33 3.99 28.66 4.98 29 6 C27.35 5.34 25.7 4.68 24 4 C23.67 4.66 23.34 5.32 23 6 C22.05060547 5.53980469 22.05060547 5.53980469 21.08203125 5.0703125 C16.98712008 3.6482521 12.98581283 3.28888648 8.6875 2.875 C7.85154297 2.78863281 7.01558594 2.70226562 6.15429688 2.61328125 C4.1035237 2.40234458 2.05184097 2.20028354 0 2 C0 1.34 0 0.68 0 0 Z " fill="#BDBCD3" transform="translate(133,105)"/>
<path d="M0 0 C0.99 0.33 1.98 0.66 3 1 C2.65598492 9.04995287 2.65598492 9.04995287 0.1875 12.625 C-2 14 -2 14 -4.25 13.75 C-5.11625 13.37875 -5.11625 13.37875 -6 13 C-5.01 12.34 -4.02 11.68 -3 11 C-1.98247445 8.35952748 -1.98247445 8.35952748 -1.3125 5.375 C-1.06113281 4.37210938 -0.80976563 3.36921875 -0.55078125 2.3359375 C-0.36902344 1.56507812 -0.18726563 0.79421875 0 0 Z " fill="#E2E4F0" transform="translate(142,14)"/>
<path d="M0 0 C0.66 0 1.32 0 2 0 C2 3.83856765 1.8398245 5.9797836 -0.63671875 8.98828125 C-4.51899776 12.55997794 -7.52166077 14.86304152 -13 15 C-10.75873141 12.58632613 -8.79196903 10.87687963 -5.9375 9.1875 C-2.1972656 6.40221906 -1.50172067 4.33830414 0 0 Z " fill="#872431" transform="translate(146,59)"/>
<path d="M0 0 C4.8 3.44615385 4.8 3.44615385 5.8125 6.25 C5.874375 6.8275 5.93625 7.405 6 8 C3 10 3 10 0 10 C-0.12375 9.360625 -0.2475 8.72125 -0.375 8.0625 C-0.684375 7.0415625 -0.684375 7.0415625 -1 6 C-1.66 5.67 -2.32 5.34 -3 5 C-3 4.34 -3 3.68 -3 3 C-2.01 3 -1.02 3 0 3 C0 2.01 0 1.02 0 0 Z " fill="#888696" transform="translate(167,43)"/>
<path d="M0 0 C0.99 0 1.98 0 3 0 C3 0.66 3 1.32 3 2 C4.32 2.33 5.64 2.66 7 3 C2.545 4.485 2.545 4.485 -2 6 C-2 6.66 -2 7.32 -2 8 C-2.66 8 -3.32 8 -4 8 C-3.67 9.98 -3.34 11.96 -3 14 C-3.99 14 -4.98 14 -6 14 C-5.979375 13.21625 -5.95875 12.4325 -5.9375 11.625 C-5.81315937 9.01885039 -5.81315937 9.01885039 -7 7 C-6.01 6.67 -5.02 6.34 -4 6 C-3.67 5.01 -3.34 4.02 -3 3 C-2.01 2.34 -1.02 1.68 0 1 C0 0.67 0 0.34 0 0 Z " fill="#C7C7D9" transform="translate(87,55)"/>
<path d="M0 0 C0.66 1.98 1.32 3.96 2 6 C1.01 5.34 0.02 4.68 -1 4 C-4.10970384 4.28544305 -4.10970384 4.28544305 -7 6 C-8.74570339 9.40663508 -8.74570339 9.40663508 -10 13 C-11.6875 14.9375 -11.6875 14.9375 -13 16 C-13.66 15.67 -14.32 15.34 -15 15 C-14.401875 14.484375 -13.80375 13.96875 -13.1875 13.4375 C-10.78099243 11.04161567 -10.78099243 11.04161567 -9.625 7.5 C-7.7251753 3.40806988 -4.86215556 0 0 0 Z " fill="#BEBECF" transform="translate(169,40)"/>
<path d="M0 0 C4.75 0.875 4.75 0.875 7 2 C7 2.99 7 3.98 7 5 C9.47266765 4.65555119 9.47266765 4.65555119 12 4 C12.33 3.34 12.66 2.68 13 2 C13.66 3.32 14.32 4.64 15 6 C13.9375 7.5625 13.9375 7.5625 12 9 C8.3125 8.6875 8.3125 8.6875 5 8 C5 6.68 5 5.36 5 4 C2.58119071 1.73122465 2.58119071 1.73122465 0 0 Z " fill="#AEAEC1" transform="translate(103,32)"/>
<path d="M0 0 C0.99 0.66 1.98 1.32 3 2 C2.01 2.99 1.02 3.98 0 5 C0.66 5.66 1.32 6.32 2 7 C-1.96 7.66 -5.92 8.32 -10 9 C-6.83047153 5.73991357 -3.60062011 2.77762123 0 0 Z " fill="#8B889F" transform="translate(126,44)"/>
<path d="M0 0 C4.875 1.75 4.875 1.75 6 4 C5.34 4 4.68 4 4 4 C3.34 7.63 2.68 11.26 2 15 C1.67 15 1.34 15 1 15 C1 11.37 1 7.74 1 4 C-0.32 3.67 -1.64 3.34 -3 3 C-2.01 2.01 -1.02 1.02 0 0 Z " fill="#D0D1E1" transform="translate(138,10)"/>
<path d="M0 0 C1.98 0 3.96 0 6 0 C6 2.31 6 4.62 6 7 C4.02 7 2.04 7 0 7 C0 4.69 0 2.38 0 0 Z " fill="#1CB15F" transform="translate(105,133)"/>
<path d="M0 0 C1.98 0 3.96 0 6 0 C6 2.31 6 4.62 6 7 C4.02 7 2.04 7 0 7 C0 4.69 0 2.38 0 0 Z " fill="#7ED4B0" transform="translate(112,133)"/>
<path d="M0 0 C1.98 0 3.96 0 6 0 C6 2.31 6 4.62 6 7 C4.02 7 2.04 7 0 7 C0 4.69 0 2.38 0 0 Z " fill="#118443" transform="translate(98,133)"/>
<path d="M0 0 C1.98 0 3.96 0 6 0 C6 2.31 6 4.62 6 7 C4.02 7 2.04 7 0 7 C0 4.69 0 2.38 0 0 Z " fill="#30F28A" transform="translate(91,133)"/>
<path d="M0 0 C1.98 0 3.96 0 6 0 C6 2.31 6 4.62 6 7 C4.02 7 2.04 7 0 7 C0 4.69 0 2.38 0 0 Z " fill="#1AB05C" transform="translate(84,133)"/>
<path d="M0 0 C1.76923828 0.01353516 1.76923828 0.01353516 3.57421875 0.02734375 C4.47785156 0.03894531 5.38148437 0.05054687 6.3125 0.0625 C6.3125 0.7225 6.3125 1.3825 6.3125 2.0625 C8.2925 2.0625 10.2725 2.0625 12.3125 2.0625 C12.3125 2.3925 12.3125 2.7225 12.3125 3.0625 C5.21815767 3.15983092 -1.66944143 3.16337193 -8.6875 2.0625 C-8.6875 2.7225 -8.6875 3.3825 -8.6875 4.0625 C-9.3475 4.0625 -10.0075 4.0625 -10.6875 4.0625 C-10.3575 3.0725 -10.0275 2.0825 -9.6875 1.0625 C-6.26517028 -0.07827657 -3.60076783 -0.03565117 0 0 Z " fill="#BDBED4" transform="translate(115.6875,97.9375)"/>
<path d="M0 0 C1.32 0 2.64 0 4 0 C4 0.66 4 1.32 4 2 C4.66 2.33 5.32 2.66 6 3 C4.37660195 4.70884005 2.70680947 6.37446717 1 8 C0.34 8 -0.32 8 -1 8 C-1 7.34 -1 6.68 -1 6 C-1.66 6 -2.32 6 -3 6 C-3 5.01 -3 4.02 -3 3 C-2.34 3 -1.68 3 -1 3 C-0.67 2.01 -0.34 1.02 0 0 Z " fill="#A7A7BB" transform="translate(120,28)"/>
<path d="M0 0 C-6.28571429 4.42857143 -6.28571429 4.42857143 -10 5 C-10 4.34 -10 3.68 -10 3 C-9.01 3 -8.02 3 -7 3 C-7.33 2.01 -7.66 1.02 -8 0 C-4.94736336 -0.98120464 -3.05263664 -0.98120464 0 0 Z M-12 5 C-11.34 5 -10.68 5 -10 5 C-9.67 5.99 -9.34 6.98 -9 8 C-9.99 8.33 -10.98 8.66 -12 9 C-11.67 9.66 -11.34 10.32 -11 11 C-11.33 11.99 -11.66 12.98 -12 14 C-12.99 13.67 -13.98 13.34 -15 13 C-14.25 7.25 -14.25 7.25 -12 5 Z " fill="#D2D2E1" transform="translate(93,54)"/>
<path d="M0 0 C0.33 1.32 0.66 2.64 1 4 C1.99 4 2.98 4 4 4 C2.85900474 7.42298577 1.99914379 8.14758766 -1 10 C-1.99 10 -2.98 10 -4 10 C-4 7.69 -4 5.38 -4 3 C-3.01 3 -2.02 3 -1 3 C-0.67 2.01 -0.34 1.02 0 0 Z " fill="#7F7D91" transform="translate(120,60)"/>
<path d="M0 0 C0 0.99 0 1.98 0 3 C-1.8984375 4.82421875 -1.8984375 4.82421875 -4.375 6.6875 C-5.18710938 7.31011719 -5.99921875 7.93273437 -6.8359375 8.57421875 C-9 10 -9 10 -11 10 C-10.67 9.01 -10.34 8.02 -10 7 C-10.99 6.34 -11.98 5.68 -13 5 C-9.89951632 3.96650544 -6.79957754 2.93571355 -3.6875 1.9375 C-1.11289243 1.25780878 -1.11289243 1.25780878 0 0 Z " fill="#BBBBCF" transform="translate(127,65)"/>
<path d="M0 0 C1.65 0.99 3.3 1.98 5 3 C4.67 4.65 4.34 6.3 4 8 C2.35 8 0.7 8 -1 8 C-1.625 5.6875 -1.625 5.6875 -2 3 C-1.34 2.01 -0.68 1.02 0 0 Z " fill="#BDBFD4" transform="translate(122,56)"/>
<path d="M0 0 C0.66 0 1.32 0 2 0 C2.33 0.99 2.66 1.98 3 3 C0.91999989 3.84161854 -1.16414146 4.67300763 -3.25 5.5 C-4.41015625 5.9640625 -5.5703125 6.428125 -6.765625 6.90625 C-10 8 -10 8 -14 8 C-14 7.34 -14 6.68 -14 6 C-13.01 6 -12.02 6 -11 6 C-10.67 5.34 -10.34 4.68 -10 4 C-7.75 3.4375 -7.75 3.4375 -5 3 C-3.33333333 2.66666667 -1.66666667 2.33333333 0 2 C0 1.34 0 0.68 0 0 Z " fill="#BCBCD1" transform="translate(136,79)"/>
<path d="M0 0 C2.79828356 0.38597015 3.8205884 0.80136573 5.75 2.9375 C7 5 7 5 7 7 C5.02 7 3.04 7 1 7 C0.67 4.69 0.34 2.38 0 0 Z " fill="#504F61" transform="translate(141,50)"/>
<path d="M0 0 C0.99 0.33 1.98 0.66 3 1 C3.33 3.31 3.66 5.62 4 8 C3.01 8.66 2.02 9.32 1 10 C1 9.34 1 8.68 1 8 C0.01 7.67 -0.98 7.34 -2 7 C-2 5.68 -2 4.36 -2 3 C-1.01 2.67 -0.02 2.34 1 2 C0.67 1.34 0.34 0.68 0 0 Z " fill="#ADADBF" transform="translate(45,135)"/>
<path d="M0 0 C1.32 0.66 2.64 1.32 4 2 C4 2.99 4 3.98 4 5 C3.01 5 2.02 5 1 5 C0.67 6.32 0.34 7.64 0 9 C-1.9375 8.625 -1.9375 8.625 -4 8 C-4.33 7.34 -4.66 6.68 -5 6 C-4.67 5.34 -4.34 4.68 -4 4 C-1.4375 3.375 -1.4375 3.375 1 3 C0.67 2.01 0.34 1.02 0 0 Z " fill="#DFE0EB" transform="translate(82,52)"/>
<path d="M0 0 C1 1 1 1 1.0625 4.0625 C1.041875 5.031875 1.02125 6.00125 1 7 C0.34 6.67 -0.32 6.34 -1 6 C-1 5.34 -1 4.68 -1 4 C-1.598125 3.896875 -2.19625 3.79375 -2.8125 3.6875 C-5.28243264 2.91123545 -6.32251235 1.92911079 -8 0 C-5.11795733 -1.44102133 -3.08226581 -0.65580124 0 0 Z " fill="#9290A9" transform="translate(136,18)"/>
<path d="M0 0 C0.66 0.33 1.32 0.66 2 1 C1.875 2.75 1.875 2.75 1 5 C-2.0625 7.25 -2.0625 7.25 -5 9 C-5.33 7.35 -5.66 5.7 -6 4 C-4.02 2.68 -2.04 1.36 0 0 Z " fill="#EBEEF5" transform="translate(154,53)"/>
<path d="M0 0 C2.97 0.33 5.94 0.66 9 1 C9 1.99 9 2.98 9 4 C6.36 4.33 3.72 4.66 1 5 C0.67 3.35 0.34 1.7 0 0 Z " fill="#5E5658" transform="translate(9,88)"/>
<path d="M0 0 C-0.33 0.99 -0.66 1.98 -1 3 C-1.99 2.01 -2.98 1.02 -4 0 C-4 1.65 -4 3.3 -4 5 C-4.99 5.33 -5.98 5.66 -7 6 C-8 5 -8 5 -8.0625 1.9375 C-8.041875 0.968125 -8.02125 -0.00125 -8 -1 C-4.59745511 -2.2151946 -3.06748874 -1.86240388 0 0 Z " fill="#878388" transform="translate(31,62)"/>
<path d="M0 0 C0.99 0 1.98 0 3 0 C3.625 2.875 3.625 2.875 4 6 C3.34 6.66 2.68 7.32 2 8 C1.01 8 0.02 8 -1 8 C-1.04241723 5.66705225 -1.04092937 3.33297433 -1 1 C-0.67 0.67 -0.34 0.34 0 0 Z " fill="#85849C" transform="translate(175,58)"/>
<path d="M0 0 C3 1.5 3 1.5 6 3 C6 3.99 6 4.98 6 6 C3.69 6.33 1.38 6.66 -1 7 C-1.04254356 5.00045254 -1.04080783 2.99958364 -1 1 C-0.67 0.67 -0.34 0.34 0 0 Z " fill="#ACACBE" transform="translate(36,136)"/>
<path d="M0 0 C-4.9731874 4.08511822 -8.62505604 4.12259508 -15 4 C-12.56815788 1.56815788 -10.79947325 1.20248949 -7.5 0.3125 C-6.5203125 0.04050781 -5.540625 -0.23148437 -4.53125 -0.51171875 C-2 -1 -2 -1 0 0 Z " fill="#DFE0F1" transform="translate(127,93)"/>
<path d="M0 0 C1.3921875 0.3403125 1.3921875 0.3403125 2.8125 0.6875 C3.4725 3.3275 4.1325 5.9675 4.8125 8.6875 C3.1625 9.0175 1.5125 9.3475 -0.1875 9.6875 C0.1425 9.0275 0.4725 8.3675 0.8125 7.6875 C1.4725 7.6875 2.1325 7.6875 2.8125 7.6875 C2.1525 5.7075 1.4925 3.7275 0.8125 1.6875 C-1.4975 2.0175 -3.8075 2.3475 -6.1875 2.6875 C-4.14987265 -0.14253799 -3.59070275 -0.35202968 0 0 Z " fill="#9E9EB3" transform="translate(172.1875,70.3125)"/>
<path d="M0 0 C5.53846154 -0.36923077 5.53846154 -0.36923077 7.875 1.5 C8.24625 1.995 8.6175 2.49 9 3 C5.91111478 5.05925681 5.29064073 5.2390374 1.8125 5.125 C-0.0746875 5.063125 -0.0746875 5.063125 -2 5 C-1.01 4.34 -0.02 3.68 1 3 C0.67 2.01 0.34 1.02 0 0 Z " fill="#BABACD" transform="translate(90,55)"/>
<path d="M0 0 C6.93 0.495 6.93 0.495 14 1 C14 1.66 14 2.32 14 3 C9.38 3 4.76 3 0 3 C0 2.01 0 1.02 0 0 Z " fill="#9E9EAF" transform="translate(151,147)"/>
<path d="M0 0 C0.99 0.33 1.98 0.66 3 1 C3 1.33 3 1.66 3 2 C3.32380126 3.33568021 3.65657551 4.66923011 4 6 C2.125 6.625 2.125 6.625 0 7 C-0.66 6.34 -1.32 5.68 -2 5 C-2 3.68 -2 2.36 -2 1 C-1.34 0.67 -0.68 0.34 0 0 Z " fill="#383538" transform="translate(157,135)"/>
<path d="M0 0 C1.093125 0.226875 2.18625 0.45375 3.3125 0.6875 C3.3125 2.0075 3.3125 3.3275 3.3125 4.6875 C2.3225 5.0175 1.3325 5.3475 0.3125 5.6875 C-0.0175 5.0275 -0.3475 4.3675 -0.6875 3.6875 C-3.71684491 3.02977572 -3.71684491 3.02977572 -6.6875 2.6875 C-4.58035839 -0.41123767 -3.86755884 -0.32775922 0 0 Z " fill="#BEBDD0" transform="translate(166.6875,72.3125)"/>
<path d="M0 0 C1.98 0.66 3.96 1.32 6 2 C6 2.99 6 3.98 6 5 C6.66 5.33 7.32 5.66 8 6 C7.67 6.99 7.34 7.98 7 9 C6.01 9 5.02 9 4 9 C3.67 6.69 3.34 4.38 3 2 C1.68 1.67 0.36 1.34 -1 1 C-0.67 0.67 -0.34 0.34 0 0 Z " fill="#9392A9" transform="translate(172,69)"/>
<path d="M0 0 C0.99 0 1.98 0 3 0 C3 0.66 3 1.32 3 2 C3.99 1.67 4.98 1.34 6 1 C6 1.66 6 2.32 6 3 C7.98 3 9.96 3 12 3 C12.33 4.32 12.66 5.64 13 7 C12.34 6.34 11.68 5.68 11 5 C8.78927023 4.75746187 8.78927023 4.75746187 6.375 4.875 C5.14910156 4.90207031 5.14910156 4.90207031 3.8984375 4.9296875 C2.95871094 4.96449219 2.95871094 4.96449219 2 5 C2 4.01 2 3.02 2 2 C1.34 2 0.68 2 0 2 C0 1.34 0 0.68 0 0 Z " fill="#CABFCD" transform="translate(136,54)"/>
<path d="M0 0 C1.47919922 0.19142578 1.47919922 0.19142578 2.98828125 0.38671875 C4.47908203 0.56654297 4.47908203 0.56654297 6 0.75 C6.75925781 0.85699219 7.51851562 0.96398438 8.30078125 1.07421875 C8.30078125 1.73421875 8.30078125 2.39421875 8.30078125 3.07421875 C3.50777992 4.46573527 -0.85057657 3.76084564 -5.69921875 3.07421875 C-3.85219692 0.62202936 -3.13798948 0.08628336 0 0 Z " fill="#D5D6DF" transform="translate(86.69921875,35.92578125)"/>
<path d="M0 0 C-0.25 2.375 -0.25 2.375 -1 5 C-2.9375 6.375 -2.9375 6.375 -5 7 C-5.66 6.67 -6.32 6.34 -7 6 C-7 4 -7 4 -5.1875 1.875 C-3 0 -3 0 0 0 Z " fill="#9291AA" transform="translate(131,24)"/>
<path d="M0 0 C8.57142857 -0.14285714 8.57142857 -0.14285714 12 1 C12 1.66 12 2.32 12 3 C8.04 3 4.08 3 0 3 C0 2.01 0 1.02 0 0 Z " fill="#A1A1B3" transform="translate(94,150)"/>
<path d="M0 0 C0.99 0.66 1.98 1.32 3 2 C2.34 3.65 1.68 5.3 1 7 C-1.475 6.01 -1.475 6.01 -4 5 C-3 2 -3 2 0 0 Z " fill="#9F9FB8" transform="translate(124,34)"/>
<path d="M0 0 C3.0625 0.1875 3.0625 0.1875 5.0625 2.1875 C1.5669586 4.30979299 1.5669586 4.30979299 -1 3.6875 C-1.639375 3.5225 -2.27875 3.3575 -2.9375 3.1875 C-3.9275 3.8475 -4.9175 4.5075 -5.9375 5.1875 C-3.53665014 0.22574363 -3.53665014 0.22574363 0 0 Z " fill="#F5FBFE" transform="translate(157.9375,130.8125)"/>
<path d="M0 0 C0.61617187 0.18949219 1.23234375 0.37898438 1.8671875 0.57421875 C0.58002103 1.58000464 -0.71269908 2.57868673 -2.0078125 3.57421875 C-3.08675781 4.40953125 -3.08675781 4.40953125 -4.1875 5.26171875 C-6.1328125 6.57421875 -6.1328125 6.57421875 -8.1328125 6.57421875 C-6.59355861 2.85435517 -4.48364726 -0.89508709 0 0 Z " fill="#771926" transform="translate(124.1328125,80.42578125)"/>
<path d="M0 0 C1.32 0.66 2.64 1.32 4 2 C3.01 2 2.02 2 1 2 C1 2.66 1 3.32 1 4 C1.99 4.33 2.98 4.66 4 5 C4 5.99 4 6.98 4 8 C3.34 8 2.68 8 2 8 C2 7.34 2 6.68 2 6 C1.34 6 0.68 6 0 6 C-0.33 6.66 -0.66 7.32 -1 8 C-1.625 5.125 -1.625 5.125 -2 2 C-1.34 1.34 -0.68 0.68 0 0 Z " fill="#CFCFDE" transform="translate(163,44)"/>
<path d="M0 0 C0.66 0.33 1.32 0.66 2 1 C-0.86698342 4.49413605 -2.84150148 6.28836874 -7.3125 6.8125 C-9.1378125 6.9053125 -9.1378125 6.9053125 -11 7 C-7.53252172 4.22601737 -3.93597489 2.04087587 0 0 Z " fill="#E3E5F0" transform="translate(136,10)"/>
<path d="M0 0 C0.66 0 1.32 0 2 0 C2 0.66 2 1.32 2 2 C2.66 2 3.32 2 4 2 C4 3.65 4 5.3 4 7 C3.34 7 2.68 7 2 7 C1.67 6.34 1.34 5.68 1 5 C0.01 5.66 -0.98 6.32 -2 7 C-1.34 4.69 -0.68 2.38 0 0 Z " fill="#9A979D" transform="translate(13,74)"/>
<path d="M0 0 C1.98 0 3.96 0 6 0 C5.67 1.32 5.34 2.64 5 4 C3.02 4 1.04 4 -1 4 C-0.67 2.68 -0.34 1.36 0 0 Z " fill="#D4D4D7" transform="translate(1,2)"/>
<path d="M0 0 C2.31 0 4.62 0 7 0 C6.34 1.32 5.68 2.64 5 4 C4.34 3.67 3.68 3.34 3 3 C3 3.66 3 4.32 3 5 C2.01 4.67 1.02 4.34 0 4 C0 2.68 0 1.36 0 0 Z " fill="#B9B8CB" transform="translate(176,0)"/>
<path d="M0 0 C1.32 0.99 2.64 1.98 4 3 C3.67 3.99 3.34 4.98 3 6 C0.03 5.505 0.03 5.505 -3 5 C-3 4.34 -3 3.68 -3 3 C-2.01 3 -1.02 3 0 3 C0 2.01 0 1.02 0 0 Z " fill="#534F5A" transform="translate(167,43)"/>
<path d="M0 0 C-0.33 1.32 -0.66 2.64 -1 4 C-3.64 4 -6.28 4 -9 4 C-8 2 -8 2 -5.625 0.875 C-3 0 -3 0 0 0 Z " fill="#8D8BA5" transform="translate(138,41)"/>
<path d="M0 0 C0.33 0.66 0.66 1.32 1 2 C1.78375 1.79375 2.5675 1.5875 3.375 1.375 C4.674375 1.189375 4.674375 1.189375 6 1 C6.66 1.66 7.32 2.32 8 3 C3.03926578 4.32286246 -1.91111512 4.08893197 -7 4 C-7 3.67 -7 3.34 -7 3 C-5.02 3 -3.04 3 -1 3 C-0.67 2.01 -0.34 1.02 0 0 Z " fill="#100A0A" transform="translate(29,90)"/>
<path d="M0 0 C2.97 0.33 5.94 0.66 9 1 C8.67 1.99 8.34 2.98 8 4 C6.35 4.33 4.7 4.66 3 5 C3 4.34 3 3.68 3 3 C2.01 2.01 1.02 1.02 0 0 Z " fill="#564E50" transform="translate(34,88)"/>
<path d="M0 0 C0.99 0.33 1.98 0.66 3 1 C3 1.66 3 2.32 3 3 C0.50590939 4.57035335 -0.70443416 5.0274945 -3.6875 4.75 C-4.8321875 4.37875 -4.8321875 4.37875 -6 4 C-6.33 3.34 -6.66 2.68 -7 2 C-6.21625 2.04125 -5.4325 2.0825 -4.625 2.125 C-1.83883881 2.28728734 -1.83883881 2.28728734 0 0 Z " fill="#BEBECF" transform="translate(118,86)"/>
<path d="M0 0 C2.4375 0.25 2.4375 0.25 5 1 C5.66 1.99 6.32 2.98 7 4 C5.25 4.75 5.25 4.75 3 5 C0.75 3.0625 0.75 3.0625 -1 1 C-0.67 0.67 -0.34 0.34 0 0 Z " fill="#9190AA" transform="translate(131,29)"/>
<path d="M0 0 C1.98 0 3.96 0 6 0 C5.505 0.61875 5.01 1.2375 4.5 1.875 C2.80777227 3.83880904 2.80777227 3.83880904 3 6 C1.68 5.67 0.36 5.34 -1 5 C-1 4.34 -1 3.68 -1 3 C-0.34 3 0.32 3 1 3 C0.67 2.01 0.34 1.02 0 0 Z " fill="#E5E7F1" transform="translate(122,21)"/>
<path d="M0 0 C1.98 0 3.96 0 6 0 C4.68 1.32 3.36 2.64 2 4 C3.32 4.33 4.64 4.66 6 5 C4.02 5 2.04 5 0 5 C-0.33 4.01 -0.66 3.02 -1 2 C-0.67 1.34 -0.34 0.68 0 0 Z " fill="#CCCDE1" transform="translate(103,98)"/>
<path d="M0 0 C1.32 0 2.64 0 4 0 C4 1.98 4 3.96 4 6 C3.67 5.34 3.34 4.68 3 4 C2.01 4.33 1.02 4.66 0 5 C-0.5625 3.0625 -0.5625 3.0625 -1 1 C-0.67 0.67 -0.34 0.34 0 0 Z " fill="#F5F6FA" transform="translate(19,75)"/>
<path d="M0 0 C0.928125 1.175625 0.928125 1.175625 1.875 2.375 C3.89858661 4.96837647 3.89858661 4.96837647 6 7 C1.73173127 7 1.06117568 6.62386487 -2 4 C-1.34 2.68 -0.68 1.36 0 0 Z " fill="#9A9CB6" transform="translate(130,28)"/>
<path d="M0 0 C0.66 0 1.32 0 2 0 C2 0.66 2 1.32 2 2 C2.66 2 3.32 2 4 2 C3.67 2.99 3.34 3.98 3 5 C0.03 4.505 0.03 4.505 -3 4 C-3 3.34 -3 2.68 -3 2 C-2.01 2 -1.02 2 0 2 C0 1.34 0 0.68 0 0 Z " fill="#A6A6B6" transform="translate(110,27)"/>
<path d="M0 0 C0.99 0.33 1.98 0.66 3 1 C3.6875 3.0625 3.6875 3.0625 4 5 C1.125 5.625 1.125 5.625 -2 6 C-2.66 5.34 -3.32 4.68 -4 4 C-2.68 3.67 -1.36 3.34 0 3 C0 2.01 0 1.02 0 0 Z " fill="#D1D1E1" transform="translate(121,86)"/>
<path d="M0 0 C0 0.66 0 1.32 0 2 C-0.66 2 -1.32 2 -2 2 C-2.66 3.32 -3.32 4.64 -4 6 C-4.99 5.67 -5.98 5.34 -7 5 C-6 2 -6 2 -4.0625 0.8125 C-2 0 -2 0 0 0 Z " fill="#88869B" transform="translate(140,47)"/>
<path d="M0 0 C0.33 0 0.66 0 1 0 C1 2.31 1 4.62 1 7 C-0.98 7 -2.96 7 -5 7 C-4.67 6.01 -4.34 5.02 -4 4 C-3.01 4 -2.02 4 -1 4 C-0.67 2.68 -0.34 1.36 0 0 Z " fill="#2AE981" transform="translate(103,133)"/>
<path d="M0 0 C1.32 0.33 2.64 0.66 4 1 C3.34 2.98 2.68 4.96 2 7 C1.34 6.34 0.68 5.68 0 5 C-0.99 5 -1.98 5 -3 5 C-2.505 4.360625 -2.01 3.72125 -1.5 3.0625 C0.09802862 1.29025661 0.09802862 1.29025661 0 0 Z " fill="#D2D5DA" transform="translate(160,133)"/>
<path d="M0 0 C0.33 0.99 0.66 1.98 1 3 C-1.475 2.01 -1.475 2.01 -4 1 C-4.33 1.66 -4.66 2.32 -5 3 C-7.475 2.01 -7.475 2.01 -10 1 C-6.1496895 -1.56687367 -4.41430237 -0.83288724 0 0 Z " fill="#C4C4D9" transform="translate(161,108)"/>
<path d="M0 0 C2.97 0.33 5.94 0.66 9 1 C6.07735566 2.46132217 4.07536854 3.34099246 1 4 C0.67 2.68 0.34 1.36 0 0 Z " fill="#5C5557" transform="translate(19,88)"/>
<path d="M0 0 C0.99 0 1.98 0 3 0 C2.6875 2.375 2.6875 2.375 2 5 C1.01 5.66 0.02 6.32 -1 7 C-1.33 6.01 -1.66 5.02 -2 4 C-1.34 4 -0.68 4 0 4 C0 2.68 0 1.36 0 0 Z " fill="#E7E9F3" transform="translate(129,51)"/>
<path d="M0 0 C0.33 0.66 0.66 1.32 1 2 C0.67 2.99 0.34 3.98 0 5 C-2.97 4.505 -2.97 4.505 -6 4 C-6 3.34 -6 2.68 -6 2 C-4.02 1.34 -2.04 0.68 0 0 Z " fill="#CBCBDE" transform="translate(120,19)"/>
<path d="M0 0 C0.99 0.33 1.98 0.66 3 1 C3 2.32 3 3.64 3 5 C1.68 5 0.36 5 -1 5 C-0.67 3.35 -0.34 1.7 0 0 Z " fill="#055523" transform="translate(93,134)"/>
<path d="M0 0 C1.32 0.66 2.64 1.32 4 2 C1.1875 3.5625 1.1875 3.5625 -2 5 C-2.99 4.67 -3.98 4.34 -5 4 C-3.35 2.68 -1.7 1.36 0 0 Z " fill="#C9CADD" transform="translate(131,79)"/>
<path d="M0 0 C0.66 0.33 1.32 0.66 2 1 C0.875 2.9375 0.875 2.9375 -1 5 C-4.1875 5.75 -4.1875 5.75 -7 6 C-4.74259377 3.66475218 -2.7194239 1.81294927 0 0 Z " fill="#55293B" transform="translate(140,68)"/>
<path d="M0 0 C0.66 0.33 1.32 0.66 2 1 C-1.465 3.97 -1.465 3.97 -5 7 C-3.92643531 2.70574125 -3.4915227 2.25259529 0 0 Z " fill="#DEDFF0" transform="translate(115,54)"/>
<path d="M0 0 C1.32 0 2.64 0 4 0 C5.0625 1.8125 5.0625 1.8125 6 4 C5.67 4.99 5.34 5.98 5 7 C4.566875 6.38125 4.13375 5.7625 3.6875 5.125 C2.00259517 2.7802755 2.00259517 2.7802755 -1 1 C-0.67 0.67 -0.34 0.34 0 0 Z " fill="#717085" transform="translate(142,48)"/>
<path d="M0 0 C0.99 0.66 1.98 1.32 3 2 C2.67 3.32 2.34 4.64 2 6 C0.68 5.34 -0.64 4.68 -2 4 C-1.34 2.68 -0.68 1.36 0 0 Z " fill="#ACACC2" transform="translate(131,46)"/>
<path d="M0 0 C0.66 1.98 1.32 3.96 2 6 C-0.31 5.01 -2.62 4.02 -5 3 C-2.25 0 -2.25 0 0 0 Z " fill="#A2A2B8" transform="translate(169,40)"/>
<path d="M0 0 C-0.66 0.66 -1.32 1.32 -2 2 C-2.99 2 -3.98 2 -5 2 C-5 2.66 -5 3.32 -5 4 C-5.99 4 -6.98 4 -8 4 C-7.25 2.0625 -7.25 2.0625 -6 0 C-3.40292416 -1.05506206 -2.5386068 -1.2693034 0 0 Z " fill="#696777" transform="translate(122,24)"/>
<path d="M0 0 C0.99 0 1.98 0 3 0 C3 1.65 3 3.3 3 5 C2.01 5.33 1.02 5.66 0 6 C0 4.02 0 2.04 0 0 Z " fill="#189C50" transform="translate(112,133)"/>
<path d="M0 0 C0.99 0.33 1.98 0.66 3 1 C3.33 1.99 3.66 2.98 4 4 C2.02 4.99 2.02 4.99 0 6 C0 4.02 0 2.04 0 0 Z " fill="#CBCACD" transform="translate(27,62)"/>
<path d="M0 0 C0.66 0 1.32 0 2 0 C2 0.99 2 1.98 2 3 C3.65 2.67 5.3 2.34 7 2 C6.67 2.99 6.34 3.98 6 5 C4.35 5 2.7 5 1 5 C0.67 3.35 0.34 1.7 0 0 Z " fill="#B597AD" transform="translate(120,59)"/>
<path d="M0 0 C0.66 0.66 1.32 1.32 2 2 C1.625 4.625 1.625 4.625 1 7 C-1 5.625 -1 5.625 -3 4 C-3 3.34 -3 2.68 -3 2 C-2.01 1.34 -1.02 0.68 0 0 Z " fill="#9695AF" transform="translate(138,36)"/>
</svg>
